<svg id="Capa_1" enable-background="new 0 0 512.002 512.002" height="512" viewBox="0 0 512.002 512.002" width="512" xmlns="http://www.w3.org/2000/svg"><g><path d="m461.995 95.705c-2.539-3.273-7.25-3.869-10.523-1.33s-3.868 7.25-1.33 10.523c23.043 29.708 36.302 66.1 37.839 103.405l-100.71-26.985c4.205-26.688 5.862-53.797 4.912-80.689-.549-15.566-1.988-31.214-4.27-46.692 14.15 7.017 27.398 15.909 39.254 26.421 3.1 2.748 7.839 2.462 10.587-.636 2.748-3.1 2.463-7.84-.636-10.587-19.593-17.37-42.519-30.461-67.246-38.806l7.247-20.305c1.393-3.901-.642-8.192-4.542-9.584-3.901-1.392-8.192.641-9.584 4.542l-7.546 21.143c-84.898-21.066-173.868 17.536-216.858 94.281-.579 1.075-1.121 2.448-1.005 4.288l2.658 39.097c.508 7.464 5.704 13.78 12.931 15.717l74.064 19.845c7.112 1.908 14.867-.895 19.056-7.146l9.628-14.333 1.171 17.227c.508 7.464 5.704 13.78 12.931 15.717l29.785 7.981-41.942 156.527-70.156-.203h-.022c-4.132 0-7.487 3.344-7.5 7.479-.012 4.142 3.336 7.51 7.479 7.521l146.879.425h.073c7.344 0 14.5-3.005 19.642-8.252l52.861-53.939c10.908-11.131 27.507-15.141 42.292-10.21l16.076 5.358-100.237 100.93c-4.193 4.223-10.012 6.645-15.964 6.645h-290.325c-.759-11.398 2.398-22.492 10.601-30.667 6.807-6.784 15.838-10.516 25.441-10.516h.124l57.53.21h.028c4.129 0 7.484-3.34 7.5-7.473.015-4.142-3.331-7.512-7.473-7.527l-57.533-.21c-13.697-.052-26.525 5.242-36.206 14.892-12.195 12.156-15.012 28.829-15.012 45.791 0 5.79 4.71 10.5 10.5 10.5h18.037l-15.515 34.097c-2.509 5.515-2.594 11.521-.715 16.825h-39.9c-4.142 0-7.5 3.357-7.5 7.5s3.358 7.5 7.5 7.5h461.523c4.142 0 7.5-3.357 7.5-7.5s-3.358-7.5-7.5-7.5h-70.41c1.879-5.304 1.794-11.311-.715-16.826l-23.795-52.297 98.271-98.953c5.439-5.393 3.071-15.024-4.131-17.359l-22.957-7.652c-20.188-6.728-42.855-1.257-57.749 13.941l-52.861 53.939c-2.337 2.385-5.59 3.751-8.927 3.751h-.033l-61.205-.177 40.913-152.69 29.79 7.982c7.111 1.91 14.868-.896 19.057-7.146l9.628-14.333 1.171 17.227c.508 7.464 5.704 13.78 12.931 15.717l74.063 19.845c7.112 1.908 14.868-.894 19.057-7.146l21.85-32.53c.645-1.043 1.275-2.374 1.274-4.213.565-44.002-14.034-87.458-41.121-122.377zm-384.532 401.297c-1.074 0-2.118-.228-3.104-.676-3.764-1.713-5.433-6.171-3.719-9.938l18.342-40.309h16.49l-21.175 46.527c-1.215 2.671-3.897 4.396-6.834 4.396zm147.805 0h-126.492l23.175-50.922h116.959zm15.529 0 13.642-50.922h87.367l23.175 50.922zm152.319-10.614c1.713 3.768.045 8.226-3.734 9.944-.971.444-2.006.67-3.079.67-2.938 0-5.626-1.729-6.844-4.396l-21.633-47.535c4.906-1.158 9.563-3.29 13.639-6.267zm-159.276-302.547c-.595.887-1.69 1.297-2.722 1.021l-74.064-19.845c-1.032-.276-1.774-1.179-1.847-2.245l-1.946-28.628 96.578 25.878zm23.365-37.375-100.631-26.964c36.324-57.511 101.663-89.311 168.11-83.384-11.662 12.723-22.371 26.339-31.917 40.648-14.496 21.725-26.436 45.145-35.562 69.7zm93.485 68.685c-.596.888-1.69 1.298-2.723 1.021l-74.063-19.845c-1.032-.276-1.774-1.179-1.847-2.245l-1.946-28.628 96.578 25.878zm22.007-37.739-100.935-27.045c8.657-22.982 19.894-44.909 33.483-65.275 11.042-16.549 23.711-32.128 37.661-46.392 9.745 1.892 19.378 4.632 28.683 8.146 3.071 17.934 4.965 36.181 5.605 54.313.896 25.407-.621 51.018-4.497 76.253zm94.842 69.049c-.596.887-1.69 1.298-2.723 1.021l-74.063-19.845c-1.032-.276-1.775-1.179-1.847-2.245l-1.946-28.627 96.578 25.878z"/></g></svg>