<svg xmlns="http://www.w3.org/2000/svg" height="512pt" version="1.1" viewBox="0 0 512 512" width="512pt">
<g id="surface1">
<path d="M 512 256 C 512 397.386719 397.386719 512 256 512 C 114.613281 512 0 397.386719 0 256 C 0 114.613281 114.613281 0 256 0 C 397.386719 0 512 114.613281 512 256 Z M 512 256 " style=" stroke:none;fill-rule:nonzero;fill:rgb(70.980392%,88.627451%,21.568627%);fill-opacity:1;" />
<path d="M 512 256 C 512 282.050781 508.109375 307.191406 500.871094 330.871094 C 468.859375 435.71875 371.328125 512 256 512 C 151.441406 512 61.511719 449.300781 21.769531 359.449219 C 7.769531 327.820312 0 292.820312 0 256 C 0 209.78125 12.25 166.429688 33.679688 129 C 77.800781 206.070312 160.839844 258 256 258 C 351.160156 258 434.210938 206.070312 478.320312 129 C 499.75 166.429688 512 209.78125 512 256 Z M 512 256 " style=" stroke:none;fill-rule:nonzero;fill:rgb(58.431373%,83.921569%,0%);fill-opacity:1;" />
<path d="M 30.742188 377.703125 C 37.898438 390.921875 46.171875 403.441406 55.460938 415.128906 C 102.359375 474.148438 174.761719 512 256 512 C 337.238281 512 409.640625 474.148438 456.539062 415.128906 C 465.828125 403.441406 474.101562 390.921875 481.257812 377.703125 Z M 30.742188 377.703125 " style=" stroke:none;fill-rule:nonzero;fill:rgb(52.156863%,68.627451%,7.058824%);fill-opacity:1;" />
<path d="M 380.75 251.53125 L 380.75 479.601562 C 343.839844 500.230469 301.289062 512 256 512 C 234.621094 512 213.859375 509.378906 194.011719 504.441406 C 171.800781 498.921875 150.738281 490.488281 131.25 479.601562 L 131.25 251.53125 Z M 380.75 251.53125 " style=" stroke:none;fill-rule:nonzero;fill:rgb(45.490196%,49.411765%,61.960784%);fill-opacity:1;" />
<path d="M 380.75 251.53125 L 380.75 479.601562 C 343.839844 500.230469 301.289062 512 256 512 C 234.621094 512 213.859375 509.378906 194.011719 504.441406 L 194.011719 251.53125 Z M 380.75 251.53125 " style=" stroke:none;fill-rule:nonzero;fill:rgb(27.843137%,30.980392%,43.529412%);fill-opacity:1;" />
<path d="M 380.75 251.53125 L 380.75 479.601562 C 343.839844 500.230469 301.289062 512 256 512 L 256 251.53125 Z M 380.75 251.53125 " style=" stroke:none;fill-rule:nonzero;fill:rgb(19.607843%,23.137255%,35.294118%);fill-opacity:1;" />
<path d="M 380.75 416.769531 L 380.75 479.601562 C 343.839844 500.230469 301.289062 512 256 512 C 234.621094 512 213.859375 509.378906 194.011719 504.441406 C 171.800781 498.921875 150.738281 490.488281 131.25 479.601562 L 131.25 416.769531 C 150.539062 428.578125 171.628906 437.730469 194.011719 443.71875 C 213.789062 449 234.570312 451.820312 256 451.820312 C 301.710938 451.820312 344.429688 439.011719 380.75 416.769531 Z M 380.75 416.769531 " style=" stroke:none;fill-rule:nonzero;fill:rgb(100%,100%,100%);fill-opacity:1;" />
<path d="M 380.75 416.769531 L 380.75 479.601562 C 343.839844 500.230469 301.289062 512 256 512 C 234.621094 512 213.859375 509.378906 194.011719 504.441406 L 194.011719 443.71875 C 213.789062 449 234.570312 451.820312 256 451.820312 C 301.710938 451.820312 344.429688 439.011719 380.75 416.769531 Z M 380.75 416.769531 " style=" stroke:none;fill-rule:nonzero;fill:rgb(81.568627%,96.470588%,100%);fill-opacity:1;" />
<path d="M 380.75 416.769531 L 380.75 479.601562 C 343.839844 500.230469 301.289062 512 256 512 L 256 451.820312 C 301.710938 451.820312 344.429688 439.011719 380.75 416.769531 Z M 380.75 416.769531 " style=" stroke:none;fill-rule:nonzero;fill:rgb(56.078431%,78.823529%,96.862745%);fill-opacity:1;" />
<path d="M 32.601562 246.78125 L 256 372.792969 L 479.398438 246.78125 Z M 32.601562 246.78125 " style=" stroke:none;fill-rule:nonzero;fill:rgb(19.607843%,23.137255%,35.294118%);fill-opacity:1;" />
<path d="M 479.398438 246.78125 L 256 339.558594 L 141.90625 292.179688 L 32.601562 246.78125 L 256 154 Z M 479.398438 246.78125 " style=" stroke:none;fill-rule:nonzero;fill:rgb(45.490196%,49.411765%,61.960784%);fill-opacity:1;" />
<path d="M 479.398438 246.78125 L 256 339.558594 L 141.90625 292.179688 L 256 154 Z M 479.398438 246.78125 " style=" stroke:none;fill-rule:nonzero;fill:rgb(27.843137%,30.980392%,43.529412%);fill-opacity:1;" />
<path d="M 479.398438 246.78125 L 256 339.558594 L 256 154 Z M 479.398438 246.78125 " style=" stroke:none;fill-rule:nonzero;fill:rgb(19.607843%,23.137255%,35.294118%);fill-opacity:1;" />
<path d="M 296.300781 229.421875 C 296.300781 240.421875 278.800781 249.328125 257.210938 249.328125 C 256.800781 249.328125 256.398438 249.328125 256 249.308594 C 234.96875 248.988281 218.121094 240.210938 218.121094 229.421875 C 218.121094 218.628906 234.96875 209.851562 256 209.53125 C 256.398438 209.511719 256.800781 209.511719 257.210938 209.511719 C 278.800781 209.511719 296.300781 218.421875 296.300781 229.421875 Z M 296.300781 229.421875 " style=" stroke:none;fill-rule:nonzero;fill:rgb(100%,91.372549%,33.333333%);fill-opacity:1;" />
<path d="M 296.300781 229.421875 C 296.300781 240.421875 278.800781 249.328125 257.210938 249.328125 C 256.800781 249.328125 256.398438 249.328125 256 249.308594 L 256 209.53125 C 256.398438 209.511719 256.800781 209.511719 257.210938 209.511719 C 278.800781 209.511719 296.300781 218.421875 296.300781 229.421875 Z M 296.300781 229.421875 " style=" stroke:none;fill-rule:nonzero;fill:rgb(100%,81.960784%,7.058824%);fill-opacity:1;" />
<path d="M 389.179688 423.828125 C 385.875 423.828125 383.191406 421.152344 383.179688 417.84375 L 382.875 299.800781 C 382.839844 285.996094 373.996094 273.84375 360.871094 269.558594 L 255.347656 235.121094 C 252.199219 234.09375 250.476562 230.707031 251.503906 227.558594 C 252.53125 224.410156 255.921875 222.6875 259.070312 223.714844 L 364.59375 258.152344 C 382.65625 264.046875 394.824219 280.773438 394.875 299.769531 L 395.179688 417.8125 C 395.1875 421.128906 392.507812 423.820312 389.195312 423.828125 C 389.191406 423.828125 389.1875 423.828125 389.179688 423.828125 Z M 389.179688 423.828125 " style=" stroke:none;fill-rule:nonzero;fill:rgb(100%,91.372549%,33.333333%);fill-opacity:1;" />
<path d="M 407.46875 352.300781 C 407.46875 362.609375 399.109375 370.96875 388.800781 370.96875 C 378.5 370.96875 370.140625 362.609375 370.140625 352.300781 C 370.140625 341.988281 378.5 333.628906 388.800781 333.628906 C 399.109375 333.628906 407.46875 341.988281 407.46875 352.300781 Z M 407.46875 352.300781 " style=" stroke:none;fill-rule:nonzero;fill:rgb(100%,91.372549%,33.333333%);fill-opacity:1;" />
<path d="M 407.46875 352.300781 C 407.46875 362.609375 399.109375 370.96875 388.800781 370.96875 L 388.800781 333.628906 C 399.109375 333.628906 407.46875 341.988281 407.46875 352.300781 Z M 407.46875 352.300781 " style=" stroke:none;fill-rule:nonzero;fill:rgb(100%,81.960784%,7.058824%);fill-opacity:1;" />
<path d="M 415.679688 434.46875 L 361.929688 434.46875 L 377.179688 375.191406 C 378.300781 370.839844 382.21875 367.800781 386.710938 367.800781 L 390.890625 367.800781 C 395.390625 367.800781 399.308594 370.839844 400.429688 375.191406 Z M 415.679688 434.46875 " style=" stroke:none;fill-rule:nonzero;fill:rgb(100%,91.372549%,33.333333%);fill-opacity:1;" />
<path d="M 415.679688 434.46875 L 388.800781 434.46875 L 388.800781 367.800781 L 390.890625 367.800781 C 395.390625 367.800781 399.308594 370.839844 400.429688 375.191406 Z M 415.679688 434.46875 " style=" stroke:none;fill-rule:nonzero;fill:rgb(100%,81.960784%,7.058824%);fill-opacity:1;" />
</g>
</svg>