<svg id="Capa_1" enable-background="new 0 0 512 512" height="512" viewBox="0 0 512 512" width="512" xmlns="http://www.w3.org/2000/svg"><g><g><path d="m321.079 39.825c0-4.143-3.357-7.5-7.5-7.5h-262.642c-4.143 0-7.5 3.357-7.5 7.5v32.325c0 4.143 3.357 7.5 7.5 7.5h262.643c4.143 0 7.5-3.357 7.5-7.5v-32.325zm-15 24.825h-247.642v-17.325h247.643v17.325z"/><path d="m313.579 96.976h-195.971c-4.143 0-7.5 3.357-7.5 7.5s3.357 7.5 7.5 7.5h195.972c4.143 0 7.5-3.357 7.5-7.5s-3.358-7.5-7.501-7.5z"/><path d="m313.579 129.301h-195.971c-4.143 0-7.5 3.357-7.5 7.5s3.357 7.5 7.5 7.5h195.972c4.143 0 7.5-3.357 7.5-7.5s-3.358-7.5-7.501-7.5z"/><path d="m321.079 201.451c0-4.143-3.357-7.5-7.5-7.5h-195.971c-4.143 0-7.5 3.357-7.5 7.5s3.357 7.5 7.5 7.5h195.972c4.142 0 7.499-3.357 7.499-7.5z"/><path d="m313.579 161.626h-195.971c-4.143 0-7.5 3.357-7.5 7.5s3.357 7.5 7.5 7.5h195.972c4.143 0 7.5-3.357 7.5-7.5s-3.358-7.5-7.501-7.5z"/><path d="m208.952 266.102c0-4.143-3.357-7.5-7.5-7.5h-83.844c-4.143 0-7.5 3.357-7.5 7.5s3.357 7.5 7.5 7.5h83.844c4.142 0 7.5-3.358 7.5-7.5z"/><path d="m230.165 233.776c0-4.143-3.357-7.5-7.5-7.5h-105.057c-4.143 0-7.5 3.357-7.5 7.5s3.357 7.5 7.5 7.5h105.058c4.142 0 7.499-3.357 7.499-7.5z"/><path d="m117.608 338.252h52.528c4.143 0 7.5-3.357 7.5-7.5s-3.357-7.5-7.5-7.5h-52.528c-4.143 0-7.5 3.357-7.5 7.5s3.357 7.5 7.5 7.5z"/><path d="m186.728 298.427c0-4.143-3.357-7.5-7.5-7.5h-61.62c-4.143 0-7.5 3.357-7.5 7.5s3.357 7.5 7.5 7.5h61.62c4.142 0 7.5-3.358 7.5-7.5z"/><path d="m117.608 402.902h54.549c4.143 0 7.5-3.357 7.5-7.5s-3.357-7.5-7.5-7.5h-54.549c-4.143 0-7.5 3.357-7.5 7.5s3.357 7.5 7.5 7.5z"/><path d="m117.608 370.577h49.498c4.143 0 7.5-3.357 7.5-7.5s-3.357-7.5-7.5-7.5h-49.498c-4.143 0-7.5 3.357-7.5 7.5s3.357 7.5 7.5 7.5z"/><path d="m43.437 136.801c0 4.143 3.357 7.5 7.5 7.5h32.325c4.143 0 7.5-3.357 7.5-7.5v-32.325c0-4.143-3.357-7.5-7.5-7.5h-32.325c-4.143 0-7.5 3.357-7.5 7.5zm15-24.825h17.325v17.325h-17.325z"/><path d="m43.437 201.451c0 4.143 3.357 7.5 7.5 7.5h32.325c4.143 0 7.5-3.357 7.5-7.5v-32.325c0-4.143-3.357-7.5-7.5-7.5h-32.325c-4.143 0-7.5 3.357-7.5 7.5zm15-24.825h17.325v17.325h-17.325z"/><path d="m43.437 266.102c0 4.143 3.357 7.5 7.5 7.5h32.325c4.143 0 7.5-3.357 7.5-7.5v-32.325c0-4.143-3.357-7.5-7.5-7.5h-32.325c-4.143 0-7.5 3.357-7.5 7.5zm15-24.826h17.325v17.325h-17.325z"/><path d="m43.437 330.752c0 4.143 3.357 7.5 7.5 7.5h32.325c4.143 0 7.5-3.357 7.5-7.5v-32.325c0-4.143-3.357-7.5-7.5-7.5h-32.325c-4.143 0-7.5 3.357-7.5 7.5zm15-24.825h17.325v17.325h-17.325z"/><path d="m43.437 395.402c0 4.143 3.357 7.5 7.5 7.5h32.325c4.143 0 7.5-3.357 7.5-7.5v-32.325c0-4.143-3.357-7.5-7.5-7.5h-32.325c-4.143 0-7.5 3.357-7.5 7.5zm15-24.825h17.325v17.325h-17.325z"/><path d="m498.693 499.196-46.126-46.125 3.268-3.268c2.929-2.93 2.929-7.678 0-10.607l-21.525-21.525c9.76-18.356 14.94-38.937 14.94-60.315 0-32.206-11.75-62.607-33.219-86.308v-48.458c0-4.143-3.357-7.5-7.5-7.5s-7.5 3.357-7.5 7.5v34.317c-4.869-3.917-9.981-7.452-15.301-10.588v-170.709h15.301v111.98c0 4.143 3.357 7.5 7.5 7.5s7.5-3.357 7.5-7.5v-119.48c0-4.143-3.357-7.5-7.5-7.5h-22.801v-22.805c0-4.143-3.357-7.5-7.5-7.5h-24.829v-22.805c0-4.143-3.357-7.5-7.5-7.5h-327.29c-4.143 0-7.5 3.357-7.5 7.5v49c0 4.143 3.357 7.5 7.5 7.5s7.5-3.357 7.5-7.5v-41.5h312.29v214.869c-5.873-.811-11.839-1.232-17.871-1.232-34.382 0-66.706 13.389-91.019 37.7-24.312 24.312-37.701 56.637-37.701 91.019 0 28.139 8.973 54.896 25.557 77.015h-191.256v-342.871c0-4.143-3.357-7.5-7.5-7.5s-7.5 3.357-7.5 7.5v350.37c0 4.143 3.357 7.5 7.5 7.5h24.826v24.825c0 4.143 3.357 7.5 7.5 7.5h22.804v22.805c0 4.143 3.357 7.5 7.5 7.5h327.29c4.143 0 7.5-3.357 7.5-7.5v-14.894l.214-.214 20.411 20.411c1.465 1.464 3.385 2.196 5.304 2.196s3.839-.732 5.304-2.196c2.929-2.93 2.929-7.678 0-10.607l-20.411-20.411 15.107-15.107 46.126 46.125c1.465 1.464 3.385 2.196 5.304 2.196s3.839-.732 5.304-2.196c2.927-2.929 2.927-7.677-.001-10.607zm-58.769-54.697-28.973 28.973c-.003.003-.007.006-.01.009s-.006.007-.009.01l-3.258 3.258-13.68-13.681c6.175-4.295 12.054-9.193 17.555-14.694 5.465-5.465 10.373-11.338 14.706-17.545zm-86.523-399.194h17.329v193.458c-5.618-2.379-11.407-4.351-17.329-5.904zm-113.282 231.639c22.169-22.17 51.29-33.255 80.411-33.255s58.242 11.085 80.411 33.255c21.479 21.479 33.309 50.036 33.309 80.411 0 30.376-11.829 58.934-33.309 80.412-21.479 21.479-50.035 33.308-80.411 33.308s-58.933-11.828-80.411-33.308c-21.479-21.479-33.309-50.036-33.309-80.412 0-30.375 11.829-58.932 33.309-80.411zm-181.682 172.426h172.095c6.836 6.689 14.235 12.468 22.05 17.325h-194.145zm30.304 47.63v-15.305h198.575c.012 0 .019-.002.031-.002 10.858 2.878 22.02 4.322 33.183 4.322 20.747 0 41.493-4.975 60.278-14.917l20.223 20.223v5.679z"/><path d="m320.53 453.75c25.748 0 49.955-10.028 68.164-28.236 36.235-36.236 37.811-94.449 3.585-132.527-2.769-3.079-7.511-3.335-10.592-.564-3.08 2.77-3.333 7.511-.564 10.592 28.895 32.147 27.561 81.296-3.036 111.893-15.375 15.376-35.815 23.844-57.557 23.844-21.74 0-42.181-8.468-57.556-23.844-15.371-15.37-23.836-35.81-23.836-57.551 0-21.742 8.465-42.182 23.836-57.552 24.328-24.329 61.529-30.735 92.569-15.943 3.736 1.779 8.214.196 9.997-3.544 1.782-3.739.195-8.215-3.544-9.997-36.76-17.517-80.817-9.934-109.63 18.877-18.203 18.204-28.229 42.41-28.229 68.159 0 25.748 10.025 49.954 28.229 68.158 18.21 18.207 42.417 28.235 68.164 28.235z"/></g></g></svg>