<?xml version="1.0" encoding="iso-8859-1"?>
<!-- Generator: Adobe Illustrator 19.0.0, SVG Export Plug-In . SVG Version: 6.00 Build 0)  -->
<svg version="1.1" id="Capa_1" xmlns="http://www.w3.org/2000/svg" xmlns:xlink="http://www.w3.org/1999/xlink" x="0px" y="0px"
	 viewBox="0 0 511.998 511.998" style="enable-background:new 0 0 511.998 511.998;" xml:space="preserve">
<path style="fill:#3E3D42;" d="M447.3,369.05c0,21.455-12.789,40.811-32.497,49.289c-33.67,14.485-90.841,33.517-158.803,33.517
	s-125.133-19.032-158.803-33.517C77.489,409.861,64.7,390.505,64.7,369.05V161.365h382.6V369.05z"/>
<path style="fill:#2D2D30;" d="M64.7,161.365v207.686c0,21.438,12.766,40.798,32.457,49.272
	c33.665,14.487,90.854,33.534,158.842,33.534c3.387,0,6.739-0.06,10.071-0.151c-4.225-10.227-6.008-20.317-6.547-29.091
	c-0.966-15.727,7.449-30.545,21.32-38.019L447.3,294.9V161.365H64.7z"/>
<path style="fill:#57565C;" d="M221.094,52.738L22.166,162.291c-19.555,10.769-19.555,38.872,0,49.641l198.928,109.554
	c21.732,11.968,48.08,11.968,69.812,0l198.928-109.554c19.555-10.769,19.555-38.872,0-49.641L290.906,52.738
	C269.174,40.77,242.826,40.77,221.094,52.738z"/>
<path style="fill:#3E3D42;" d="M290.906,52.738c-21.732-11.968-48.08-11.968-69.812,0L22.166,162.291
	c-19.555,10.769-19.555,38.872,0,49.641l198.927,109.553c21.732,11.968,48.08,11.968,69.812,0
	C59.319,180.493,290.906,52.738,290.906,52.738z"/>
<ellipse style="fill:#FFEB99;" cx="256" cy="187.109" rx="36.34" ry="21.806"/>
<path style="fill:#FFDE55;" d="M240.314,187.112c0-9.89,10.976-18.237,26.015-20.907c-3.275-0.582-6.739-0.899-10.329-0.899
	c-20.072,0-36.344,9.763-36.344,21.806s16.272,21.806,36.344,21.806c3.589,0,7.054-0.317,10.329-0.899
	C251.29,205.348,240.314,197.001,240.314,187.112z"/>
<path style="fill:#FFCD00;" d="M412.982,405.389v52.588c0,5.698-4.619,10.317-10.317,10.317h-25.387
	c-5.698,0-10.317-4.619-10.317-10.317v-53.351c0-12.852,10.536-23.243,23.441-23.006C403.07,381.851,412.982,392.72,412.982,405.389
	z"/>
<path style="fill:#EEBF00;" d="M389.972,457.977v-53.351c0-8.473,4.581-15.875,11.401-19.868c-3.23-1.924-6.961-3.065-10.97-3.138
	c-12.906-0.236-23.441,10.155-23.441,23.006v53.351c0,5.698,4.619,10.317,10.317,10.317h23.01
	C394.591,468.294,389.972,463.675,389.972,457.977z"/>
<circle style="fill:#FFEB99;" cx="389.97" cy="379.519" r="23.01"/>
<path style="fill:#FFDE55;" d="M389.972,379.52c0-8.516,4.629-15.945,11.505-19.924c-3.385-1.959-7.313-3.086-11.505-3.086
	c-12.708,0-23.01,10.302-23.01,23.01s10.302,23.01,23.01,23.01c4.193,0,8.12-1.127,11.505-3.086
	C394.601,395.465,389.972,388.035,389.972,379.52z"/>
<path d="M493.452,155.722l-80.119-44.123c-3.628-1.997-8.188-0.676-10.188,2.951c-1.998,3.629-0.677,8.189,2.951,10.188
	l80.119,44.123c6.754,3.718,10.785,10.541,10.785,18.251c0,7.709-4.031,14.532-10.784,18.251l-96.43,53.106l-95.331-57.076
	c3.44-4.203,5.389-9.062,5.389-14.282c0-16.433-19.259-29.306-43.844-29.306s-43.844,12.873-43.844,29.306
	c0,16.434,19.259,29.307,43.844,29.307c9.576,0,18.335-1.96,25.472-5.315l93.104,55.743l-87.288,48.071
	c-19.592,10.789-42.984,10.789-62.576,0L25.784,205.363C19.031,201.645,15,194.821,15,187.112c0-7.71,4.031-14.533,10.784-18.252
	L224.712,59.307c19.593-10.787,42.985-10.787,62.576,0l89.621,49.356c3.629,1.999,8.189,0.677,10.188-2.951
	c1.998-3.629,0.677-8.189-2.951-10.188l-89.621-49.356c-24.123-13.285-52.926-13.285-77.049,0L18.548,155.722
	C6.934,162.118,0,173.853,0,187.112s6.934,24.993,18.548,31.39l198.928,109.553c12.063,6.644,25.291,9.965,38.524,9.964
	c13.229-0.001,26.465-3.322,38.524-9.964l87.605-48.246v70.227c-13.035,3.47-22.668,15.371-22.668,29.483
	c0,4.47,0.974,8.714,2.708,12.543c-1.776,3.926-2.708,8.195-2.708,12.564v25.229c-34.588,9.621-69.363,14.501-103.462,14.501
	c-65.58,0-120.943-17.895-155.839-32.906c-16.985-7.308-27.961-23.95-27.961-42.399V268.746c0-4.143-3.357-7.5-7.5-7.5
	s-7.5,3.357-7.5,7.5v100.305c0,24.449,14.536,46.5,37.033,56.179c36.19,15.568,93.633,34.127,161.767,34.127
	c34.135,0,68.888-4.704,103.462-13.963v12.583c0,9.824,7.992,17.817,17.816,17.817h25.387c9.824,0,17.817-7.993,17.817-17.817
	v-34.004c20.941-10.238,34.317-31.473,34.317-54.922V239.788l38.652-21.286c11.614-6.396,18.548-18.131,18.548-31.39
	C512,173.853,505.066,162.118,493.452,155.722z M256,201.418c-16.509,0-28.844-7.554-28.844-14.307s12.335-14.306,28.844-14.306
	s28.844,7.553,28.844,14.306c0,2.153-1.258,4.386-3.501,6.432l-21.49-12.866c-3.554-2.128-8.159-0.973-10.287,2.582
	c-2.128,3.554-0.972,8.159,2.582,10.287l12.063,7.223C261.628,201.184,258.88,201.418,256,201.418z M389.972,364.01
	c8.553,0,15.511,6.958,15.511,15.51c0,8.553-6.958,15.511-15.511,15.511c-8.552,0-15.51-6.958-15.51-15.511
	C374.462,370.968,381.42,364.01,389.972,364.01z M402.665,460.794h-25.387c-1.553,0-2.816-1.264-2.816-2.817v-52.198
	c4.548,2.697,9.85,4.251,15.51,4.251s10.962-1.555,15.511-4.252v52.198C405.482,459.53,404.219,460.794,402.665,460.794z
	 M439.8,369.051c0,15.092-7.347,28.971-19.317,37.524c0,0,0.857-8.18-2.824-14.258c1.808-3.895,2.824-8.229,2.824-12.797
	c0-14.358-9.973-26.423-23.353-29.654v-78.318l42.67-23.499V369.051z"/>
<g>
</g>
<g>
</g>
<g>
</g>
<g>
</g>
<g>
</g>
<g>
</g>
<g>
</g>
<g>
</g>
<g>
</g>
<g>
</g>
<g>
</g>
<g>
</g>
<g>
</g>
<g>
</g>
<g>
</g>
</svg>
