<svg id="Layer_3" enable-background="new 0 0 64 64" height="512" viewBox="0 0 64 64" width="512" xmlns="http://www.w3.org/2000/svg"><g><path d="m58 20c-2.414 0-4.434 1.721-4.899 4h-9.601l1.5-2c1.29-1.721 2-3.852 2-6 0-5.514-4.486-10-10-10s-10 4.486-10 10c0 2.148.71 4.279 2 6l1.5 2h-19.601c-.465-2.279-2.485-4-4.899-4-2.757 0-5 2.243-5 5v28c0 2.757 2.243 5 5 5h52c2.757 0 5-2.243 5-5v-28c0-2.757-2.243-5-5-5zm-5 28h-4v-4h4zm0-6h-4c-1.103 0-2 .897-2 2v4c0 1.103.897 2 2 2h4v2h-4c-1.103 0-2 .897-2 2v2h-2v-11c0-1.654-1.346-3-3-3h-9c-1.654 0-3 1.346-3 3v11h-2v-13c0-.553-.447-1-1-1h-7c-.553 0-1 .447-1 1v.789c0 4.345-1.237 8.551-3.558 12.211h-2.514c2.659-3.839 4.072-8.323 4.072-13 0-.553-.447-1-1-1h-5v-2h3c1.654 0 3-1.346 3-3v-2.838c0-.862.55-1.624 1.368-1.897l4.896-1.632c1.636-.546 2.736-2.071 2.736-3.795v-.838h2v1.676c0 2.155-1.374 4.062-3.419 4.743l-4.213 1.404c-.818.273-1.368 1.035-1.368 1.898v1.279c0 1.654 1.346 3 3 3h20c1.654 0 3-1.346 3-3v-11h2v11c0 1.654 1.346 3 3 3h3zm-10 14h-11v-11c0-.552.448-1 1-1h9c.552 0 1 .448 1 1zm-17 0h-8.212c2.072-3.66 3.176-7.768 3.211-12h5.001zm-15-18v-12h13v.838c0 .862-.55 1.624-1.368 1.897l-4.896 1.632c-1.636.546-2.736 2.071-2.736 3.795v2.838c0 .552-.448 1-1 1zm42 0h-3c-.552 0-1-.448-1-1v-11h4zm-16-30c4.411 0 8 3.589 8 8 0 1.719-.568 3.424-1.6 4.801l-6.4 8.532-6.4-8.532c-1.032-1.377-1.6-3.082-1.6-4.801 0-4.411 3.589-8 8-8zm3 23c0 1.084-1.374 2-3 2s-3-.916-3-2c0-.48.289-.944.769-1.308l1.431 1.908c.188.252.485.4.8.4s.611-.148.8-.4l1.431-1.908c.48.364.769.828.769 1.308zm-6.435-2.914c-.986.743-1.565 1.79-1.565 2.914 0 2.206 2.243 4 5 4s5-1.794 5-4c0-1.124-.579-2.171-1.565-2.914l1.565-2.086h1v11c0 .552-.448 1-1 1h-20c-.552 0-1-.448-1-1v-1.279l4.214-1.405c2.862-.954 4.786-3.623 4.786-6.64v-1.676h2zm-30.565-3.086c0-1.654 1.346-3 3-3s3 1.346 3 3v24.002c-.836-.629-1.875-1.002-3-1.002s-2.164.373-3 1.002zm0 28c0-1.654 1.346-3 3-3s3 1.346 3 3c0 .553.447 1 1 1s1-.447 1-1v-9h3.977c-.189 4.007-1.514 7.83-3.858 11.115l-.633.885h-4.486c-1.654 0-3-1.346-3-3zm55 3h-9v-2h5c.553 0 1-.447 1-1 0-1.654 1.346-3 3-3s3 1.346 3 3-1.346 3-3 3zm3-6.998c-.836-.629-1.875-1.002-3-1.002s-2.164.373-3 1.002v-24.002c0-1.654 1.346-3 3-3s3 1.346 3 3z"/><path d="m37 20c2.757 0 5-2.243 5-5s-2.243-5-5-5-5 2.243-5 5 2.243 5 5 5zm0-8c1.654 0 3 1.346 3 3s-1.346 3-3 3-3-1.346-3-3 1.346-3 3-3z"/></g></svg>